<?xml version="1.0" encoding="utf-8"?>
<!-- Generator: Adobe Illustrator 27.9.0, SVG Export Plug-In . SVG Version: 6.00 Build 0)  -->
<svg version="1.1" xmlns="http://www.w3.org/2000/svg" xmlns:xlink="http://www.w3.org/1999/xlink" x="0px" y="0px"
	 viewBox="0 0 6400 3800" style="enable-background:new 0 0 6400 3800;" xml:space="preserve">
<g id="Background">
</g>
<g id="Icon">
	<g>
		<path d="M1714.57,992.96c25.56,25.54,64.64,29.16,94.21,9.58c11.84,7.83,25.99,12.46,41.22,12.46h390c41.35,0,75-33.65,75-75
			V534.43c0-19.69-7.57-38.29-21.32-52.38l-57.57-58.99c14.78-29.44,22.86-61.81,22.64-94.4C2257.98,210.84,2162.09,115,2045,115
			c-106.85,0-197.02,79.96-211.44,184.4l-55.4,0.4c-19.9,0.15-38.6,7.98-52.66,22.04l-287.82,287.82
			c-29.34,29.33-29.34,77.07,0,106.41L1714.57,992.96z M2272.2,502.99c8.25,8.46,12.8,19.62,12.8,31.44V940c0,24.81-20.19,45-45,45
			h-390c-24.81,0-45-20.19-45-45V534.6c0-11.89,4.6-23.11,12.96-31.58c0,0,147.57-148.65,196.04-198.91
			c17.03-17.66,47.31-17.57,64.25,0.15c21.82,22.84,88.26,90.43,88.26,90.43c-11.89,21.8-30.45,40.87-51.93,53.44
			C2097.57,427.47,2072.09,415,2045,415c-48.01-0.93-90.41,41.62-90,90c0.42,49.46,40.38,90.14,90,90
			c43.35-0.12,79.38-30.45,87.75-71.98c23.03-10.61,44.48-25.17,62.86-43.54c9.19-9.18,17.34-19.19,24.66-29.71L2272.2,502.99z
			 M1977.52,298.36l-67.9,0.49C1923.34,235.78,1978.82,190,2045,190c76.03,0,138.27,62.29,138.75,138.85
			c0.07,11.98-1.71,23.92-4.91,35.53c0,0-59.56-60.58-79.12-81.06c-28.24-29.56-78.71-29.68-107.09-0.27
			C1988.89,286.91,1977.52,298.36,1977.52,298.36z M2085.89,461.26c-26.29,8.7-55.61,7.97-81.64-0.08
			C2015.28,451,2029.75,445,2045,445C2060.32,445,2074.88,451.03,2085.89,461.26z M1993.89,536.05
			c32.82,8.28,69.16,8.78,102.33-0.11c-10.5,17.47-29.45,29.05-51.21,29.05C2023.34,565,2004.44,553.49,1993.89,536.05z M2045,145
			c100.66,0,183.08,82.47,183.75,183.85c0.31,47.42-19.5,94.58-54.35,129.42c-48.96,49.87-124.77,67.23-189.22,44.01
			c0.23-5.12,1.09-10.11,2.57-14.93c60.02,22.41,130.25,6.89,176.12-39.69c31.98-31.96,50.16-75.34,49.89-119
			c-0.59-93-76.29-168.65-168.75-168.65c-82.81,0-151.88,58.92-166.01,139.08l-15.22,0.11C1878,211.53,1954.61,145,2045,145z
			 M1458.89,630.87l287.82-287.82c8.46-8.45,19.7-13.16,31.67-13.25l169.36-1.22l-151.16,153.37
			c-13.92,14.13-21.58,32.82-21.58,52.65V940c0,14.89,4.49,28.7,12,40.38c-16.84,8.08-37.31,5.28-51.22-8.63l-276.88-276.89
			C1441.26,677.21,1441.26,648.52,1458.89,630.87z"/>
		<path d="M1955,745c33.08,0,60-26.92,60-60s-26.92-60-60-60s-60,26.92-60,60S1921.92,745,1955,745z M1955,655
			c16.55,0,30,13.45,30,30s-13.45,30-30,30s-30-13.45-30-30S1938.45,655,1955,655z"/>
		<path d="M2135,805c-33.08,0-60,26.92-60,60s26.92,60,60,60s60-26.92,60-60S2168.08,805,2135,805z M2135,895
			c-16.55,0-30-13.45-30-30s13.45-30,30-30s30,13.45,30,30S2151.55,895,2135,895z"/>
		<path d="M2180,685c0-12.02-4.68-23.32-13.18-31.81c-17-17-46.73-16.93-63.57-0.07c0,0-135.43,134.59-181.16,178.84
			c-18.14,17.56-18.05,48.37-0.19,66.15c17.85,17.76,48.64,17.9,66.15-0.2c44.23-45.72,133.86-136.03,178.78-181.08
			C2175.31,708.31,2180,697.02,2180,685z M2145.54,695.67c-45.41,44.59-134.61,135.39-178.84,181.15
			c-6.24,6.46-17.23,6.41-23.59,0.07c-6.37-6.34-6.4-17.33,0.07-23.59c45.75-44.27,136.6-133.51,181.23-178.92
			c5.66-5.76,15.52-5.72,21.2,0.01C2151.32,680.16,2151.37,689.95,2145.54,695.67z"/>
	</g>
</g>
</svg>
